HIERARCHY
ROOT Hips
{
    OFFSET 0.0 0.0 0.0
    CHANNELS 6 Xposition Yposition Zposition Zrotation Xrotation Yrotation
    JOINT Spine
    {
        OFFSET 0.0 5.0 0.0
        CHANNELS 3 Zrotation Xrotation Yrotation
        JOINT Chest
        {
            OFFSET 0.0 5.0 0.0
            CHANNELS 3 Zrotation Xrotation Yrotation
            JOINT Neck
            {
                OFFSET 0.0 8.0 0.0
                CHANNELS 3 Zrotation Xrotation Yrotation
                JOINT Head
                {
                    OFFSET 0.0 5.0 0.0
                    CHANNELS 3 Zrotation Xrotation Yrotation
                    End Site
                    {
                        OFFSET 0.0 3.0 0.0
                    }
                }
            }
            JOINT LeftShoulder
            {
                OFFSET -5.0 0.0 0.0
                CHANNELS 3 Zrotation Xrotation Yrotation
                JOINT LeftArm
                {
                    OFFSET 0.0 -10.0 0.0
                    CHANNELS 3 Zrotation Xrotation Yrotation
                    JOINT LeftForeArm
                    {
                        OFFSET 0.0 -10.0 0.0
                        CHANNELS 3 Zrotation Xrotation Yrotation
                        End Site
                        {
                            OFFSET 0.0 -3.0 0.0
                        }
                    }
                }
            }
        }
    }
}

MOTION
Frames: 33
Frame Time: 0.033333
970.000000 442.938926 135.369246 0.000000 0.000000 0.000000 0.000000 0.000000 0.000000 29.678605 -20.358904 0.000000 180.000000 11.782264 0.000000 29.744881 -1.666159 -0.000000 150.255119 5.299485 30.000000 19.983107 -7.795254 0.000000 18.000000 0.573791 0.000000
1354.522934 467.411410 121.585665 0.000000 0.000000 0.000000 0.000000 0.000000 0.000000 150.622570 -5.334944 4.973798 -29.377430 -9.216057 4.973798 140.176400 2.221376 3.759997 -12.221629 -10.225145 29.763441 132.794256 8.250413 -3.759997 -2.626015 0.101281 0.313953
969.997807 442.887864 131.801583 0.000000 0.000000 0.000000 0.000000 0.000000 0.000000 31.061399 -16.018449 9.635073 180.000000 6.614107 9.635073 30.285790 -3.987289 7.460697 149.714210 -0.321628 29.057495 19.151579 3.036678 -7.460697 18.000000 -0.930152 0.626666
1246.736984 514.278152 105.147565 0.000000 0.000000 0.000000 0.000000 0.000000 0.000000 143.557092 -13.624495 13.690942 -36.442908 3.553750 13.690942 133.761037 2.757773 11.043737 -156.950665 -5.396680 27.893295 0.000000 0.000000 0.000000 1.928484 0.441049 0.936907
1245.221100 458.637464 108.498603 0.000000 0.000000 0.000000 0.000000 0.000000 0.000000 160.701064 14.190056 16.886559 -19.298936 -25.416827 16.886559 140.193827 8.695404 14.452610 -157.554825 -6.156668 26.289200 29.500467 4.656482 -14.452610 -15.049953 -0.465648 1.243449
1257.365570 418.514181 85.820759 0.000000 0.000000 0.000000 0.000000 0.000000 0.000000 -143.710676 1.680038 19.021130 36.289324 -5.667178 19.021130 163.220413 3.535263 17.633558 11.688054 -0.863466 24.270510 152.038385 3.442391 -17.633558 -2.339948 -0.244921 1.545085
1275.099564 408.163741 99.540205 0.000000 0.000000 0.000000 0.000000 0.000000 0.000000 -132.929531 6.943083 19.960535 47.070469 -4.478981 19.960535 173.491912 1.557391 20.536413 -160.709681 -4.589595 21.869059 33.138793 4.321685 -20.536413 -14.686121 -0.432169 1.840623
1290.611115 384.880857 118.823653 0.000000 0.000000 0.000000 0.000000 0.000000 0.000000 -132.705235 -13.770398 19.645745 47.294765 -2.014903 19.645745 -173.778854 1.931873 23.115397 20.496835 0.678749 19.122720 -161.220290 -3.986446 -23.115397 1.723235 0.393361 2.128896
1302.817154 380.305352 98.670839 0.000000 0.000000 0.000000 0.000000 0.000000 0.000000 -131.493915 1.744243 18.096541 48.506085 -1.653591 18.096541 -165.393697 -1.498297 25.329838 23.154815 0.934359 16.074804 -178.200316 -1.884473 -25.329838 0.138141 0.062029 2.408768
1304.997711 379.563582 107.849986 0.000000 0.000000 0.000000 0.000000 0.000000 0.000000 -126.727972 -3.378549 15.410265 53.272028 5.049196 15.410265 -160.219593 -1.122707 27.144812 28.448880 3.349541 12.773379 -174.368770 -3.016933 -27.144812 0.079526 0.136025 2.679134
1311.668472 386.890390 77.565957 0.000000 0.000000 0.000000 0.000000 0.000000 0.000000 -122.308728 -8.137005 11.755705 57.691272 -5.365374 11.755705 -158.801130 -0.111304 28.531695 150.942637 -4.461568 9.270510 -154.878332 -4.081622 -28.531695 2.695409 0.505309 2.938926
1305.131836 395.180186 89.889371 0.000000 0.000000 0.000000 0.000000 0.000000 0.000000 -125.112810 -4.745615 7.362491 54.887190 -1.872792 7.362491 -146.487292 -1.430816 29.468618 -175.167369 -1.953835 5.621439 -159.224034 -4.043881 -29.468618 1.782042 0.450000 3.187120
1296.320457 392.734526 69.622951 0.000000 0.000000 0.000000 0.000000 0.000000 0.000000 -131.035750 -4.561675 2.506665 48.964250 -6.273296 2.506665 -128.969563 1.470804 29.940802 38.856147 -4.895574 1.883716 -134.776850 1.557541 -29.940802 3.458429 0.153188 3.422736
1306.963577 386.612041 75.012713 0.000000 0.000000 0.000000 0.000000 0.000000 0.000000 -124.469622 -8.965994 -2.506665 55.530378 6.404550 -2.506665 -109.994856 1.605178 29.940802 37.691309 4.254588 -1.883716 -118.274788 -2.476816 -29.940802 5.098336 0.183368 3.644843
969.892723 442.572198 64.194759 0.000000 0.000000 0.000000 0.000000 0.000000 0.000000 41.287575 27.344147 -7.362491 180.000000 6.666802 -7.362491 30.974696 -14.560303 29.468618 149.025304 4.813067 -5.621439 15.072869 -1.432496 -29.468618 18.000000 -0.175469 3.852566
969.876883 442.545207 57.085658 0.000000 0.000000 0.000000 0.000000 0.000000 0.000000 42.241956 -9.440120 -11.755705 180.000000 -21.998650 -11.755705 30.826133 12.918173 28.531695 149.173867 -11.420929 -9.270510 14.823070 8.564517 -28.531695 18.000000 -0.364574 4.045085
969.859960 442.518116 43.584316 0.000000 0.000000 0.000000 0.000000 0.000000 0.000000 43.199779 31.056758 -15.410265 180.000000 -19.531741 -15.410265 30.649504 -0.470248 27.144812 149.350496 -8.024010 -12.773379 14.587557 -2.633485 -27.144812 18.000000 0.560082 4.221640
969.841956 442.490926 54.626845 0.000000 0.000000 0.000000 0.000000 0.000000 0.000000 44.157210 18.144821 -18.096541 180.000000 -16.150975 -18.096541 30.446417 1.875883 25.329838 149.553583 -1.183998 -16.074804 14.366154 -5.313412 -25.329838 18.000000 0.149656 4.381533
969.822873 442.463637 44.708080 0.000000 0.000000 0.000000 0.000000 0.000000 0.000000 45.110117 -45.324372 -19.645745 180.000000 24.458866 -19.645745 30.218633 -4.489573 23.115397 149.781367 16.197591 -19.122720 14.158653 -5.482907 -23.115397 18.000000 0.178864 4.524135
969.802712 442.436251 77.783538 0.000000 0.000000 0.000000 0.000000 0.000000 0.000000 46.054109 33.225304 -19.960535 180.000000 -19.933288 -19.960535 29.968037 -2.345192 20.536413 150.031963 -0.394548 -21.869059 13.964823 0.970436 -20.536413 18.000000 -0.350504 4.648882
1187.040939 541.658249 55.686446 0.000000 0.000000 0.000000 0.000000 0.000000 0.000000 82.806623 -41.451540 -19.021130 -97.193377 29.964955 -19.021130 45.395981 -10.743645 17.633558 -156.144455 -1.842491 -24.270510 0.000000 0.000000 0.000000 0.000000 0.000000 0.000000
1182.242889 522.024286 56.553418 0.000000 0.000000 0.000000 0.000000 0.000000 0.000000 -105.721938 24.662483 -16.886559 74.278062 -30.277978 -16.886559 -155.708006 -1.586985 14.452610 -157.302521 -2.836882 -26.289200 0.000000 0.000000 0.000000 2.684983 0.255990 4.842916
1180.914459 527.065626 52.985074 0.000000 0.000000 0.000000 0.000000 0.000000 0.000000 88.055617 1.265351 -13.690942 -91.944383 -1.316128 -13.690942 -158.862018 -2.483905 11.043737 -151.747289 -2.510751 -27.893295 0.000000 0.000000 0.000000 0.000000 0.000000 0.000000
1236.800194 541.387432 44.924841 0.000000 0.000000 0.000000 0.000000 0.000000 0.000000 -85.588400 -2.859730 -9.635073 94.411600 2.322729 -9.635073 -159.297106 -8.468225 7.460697 -157.915391 -2.299470 -29.057495 26.607362 2.118610 -7.460697 14.926890 0.752032 4.960574
1161.066513 575.006626 42.673010 0.000000 0.000000 0.000000 0.000000 0.000000 0.000000 -81.021168 5.405707 -4.973798 98.978832 -6.448220 -4.973798 -102.851701 3.379676 3.759997 -157.041007 -2.937673 -29.763441 21.429890 2.129710 -3.759997 10.859432 0.254181 4.990134
1255.636253 512.645942 46.847106 0.000000 0.000000 0.000000 0.000000 0.000000 0.000000 77.832564 11.918472 -0.000000 -102.167436 -8.311350 -0.000000 -158.264834 -2.367541 0.000000 -130.745502 -6.864125 -30.000000 -157.699225 -2.244507 -0.000000 0.000000 0.000000 0.000000
1265.118484 521.473864 49.518818 0.000000 0.000000 0.000000 0.000000 0.000000 0.000000 64.078276 4.361627 4.973798 -115.921724 -2.473282 4.973798 41.397952 1.105897 -3.759997 -139.329851 2.366579 -29.763441 20.223252 -2.745497 3.759997 -16.047574 0.272584 4.990134
1228.099480 522.138258 68.609549 0.000000 0.000000 0.000000 0.000000 0.000000 0.000000 71.050901 4.974542 9.635073 -108.949099 -14.174235 9.635073 150.099970 11.721875 -7.460697 -139.894702 -5.479640 -29.057495 -156.275691 -2.424885 7.460697 0.000000 0.000000 0.000000
1240.357246 528.695873 52.390646 0.000000 0.000000 0.000000 0.000000 0.000000 0.000000 65.413351 1.290752 13.690942 -114.586649 -10.671482 13.690942 147.242328 10.041238 -11.043737 -154.470720 -2.466792 -27.893295 25.557225 2.547951 11.043737 -15.444278 -0.254795 4.911436
1231.815262 551.380248 55.456031 0.000000 0.000000 0.000000 0.000000 0.000000 0.000000 56.412506 18.834591 16.886559 -123.587494 -10.922572 16.886559 -153.392336 -1.632371 -14.452610 -154.784582 -2.976565 -26.289200 24.191555 3.842230 14.452610 -15.580844 -0.384223 4.842916
1221.475182 508.360147 64.698216 0.000000 0.000000 0.000000 0.000000 0.000000 0.000000 77.450622 4.955296 19.021130 -102.549378 -8.198581 19.021130 -156.789784 -2.233114 -17.633558 -125.590168 -1.244972 -24.270510 -160.017240 -2.996809 17.633558 1.833434 0.338142 4.755283
969.477684 442.100429 82.332707 0.000000 0.000000 0.000000 0.000000 0.000000 0.000000 54.932575 -29.428310 19.960535 180.000000 -8.535547 19.960535 25.919122 -1.493485 -20.536413 154.080878 0.528405 -21.869059 12.612867 -1.868953 20.536413 18.000000 -0.071298 4.648882
1480.140495 518.878891 74.886010 0.000000 0.000000 0.000000 0.000000 0.000000 0.000000 -110.621767 -40.943564 19.645745 69.378233 84.813399 19.645745 -158.235933 -2.703501 -23.115397 166.031448 10.036097 -19.122720 -155.186432 -3.518008 23.115397 2.641553 0.298183 4.524135
